<svg id="Capa_1" enable-background="new 0 0 512.599 512.599" height="512" viewBox="0 0 512.599 512.599" width="512" xmlns="http://www.w3.org/2000/svg"><g><g><path d="m457.21 512.599h-401.821c-30.59 0-55.389-24.799-55.389-55.389v-401.821c0-30.59 24.799-55.389 55.389-55.389h401.82c30.591 0 55.389 24.799 55.389 55.389v401.82c.001 30.591-24.798 55.39-55.388 55.39z"/><path d="m457.21 512.599h-401.821c-30.59 0-55.389-24.799-55.389-55.389v-401.821c0-30.59 24.799-55.389 55.389-55.389h401.82c30.591 0 55.389 24.799 55.389 55.389v401.82c.001 30.591-24.798 55.39-55.388 55.39z"/></g><g><path d="m372 175.563h-.057c-.847 0-1.69.012-2.521.036h4.976c-.797-.023-1.595-.035-2.398-.036" fill="#fff"/><path d="m372.073 224.379c-17.466 0-31.62 14.154-31.62 31.62 0 17.464 14.154 31.621 31.62 31.621 17.464 0 31.62-14.157 31.62-31.621 0-17.465-14.156-31.62-31.62-31.62m-196.743-46.133h-42.929v58.794h-27.874v-58.794h-44.227l.157 158.05h44.076v-61.325h27.849v61.317h42.934l.014.015zm49.761 121.175v-26.673h21.729l.025-.003c6.319 0 11.289 6.244 11.289 13.338 0 7.118-4.996 13.338-11.314 13.338zm67.01-31.333c-3.346-5.137-11.239-11.459-16.284-12.089h.025c4.97-.634 13.262-6.323 16.184-9.955-1.024 4.501-1.123 17.533.075 22.044m39.75-12.089c0-22.216 18.008-40.226 40.222-40.226s40.227 18.008 40.227 40.224-18.013 40.224-40.227 40.224c-22.212 0-40.219-18.008-40.222-40.222v-.002zm-106.686-15.88v-26.707h21.73l.025.003c6.319 0 11.289 6.239 11.289 13.346 0 7.111-4.996 13.357-11.314 13.357h-21.73m149.233-64.519h-4.976c-42.513 1.208-64.343 32.741-69.803 45.622.075-19.732-19.381-43.009-42.11-43.034h-73.252v158.025l68.3.025c27.539 0 47.138-23.877 47.171-44.333 6.288 12.887 28.093 45.107 72.305 45.107h.011l-.018.025c44.258-.025 80.299-36.814 80.274-81.097-.001-44.39-34.724-79.073-77.902-80.34" fill="#fff"/><g><path clip-rule="evenodd" d="m443.52 189.186c.39 0 .694-.087.917-.267.225-.175.35-.415.35-.714v-.032c0-.325-.1-.564-.325-.732-.225-.167-.525-.25-.899-.25h-1.548v1.998h1.573zm-2.762-3.077h2.815c.817 0 1.459.25 1.911.699.345.325.52.774.52 1.324v.05c0 .524-.135.924-.412 1.249-.275.325-.624.549-1.057.674l1.698 2.373h-1.431l-1.533-2.173h-1.311v2.173h-1.199v-6.372.003zm2.415 8.766c.764 0 1.474-.15 2.138-.425.674-.275 1.249-.674 1.723-1.149.5-.475.874-1.049 1.149-1.723.275-.649.425-1.349.425-2.098v-.052c0-.744-.15-1.441-.4-2.098-.275-.649-.649-1.224-1.124-1.713-.475-.487-1.049-.874-1.698-1.156-.649-.275-1.349-.425-2.123-.425-.749 0-1.474.15-2.123.45s-1.224.674-1.703 1.174c-.482.5-.864 1.074-1.141 1.723-.275.674-.415 1.374-.415 2.123v.045c0 .749.135 1.448.407 2.098.275.649.649 1.224 1.124 1.716.475.484 1.049.874 1.698 1.149.649.286 1.294.361 2.063.361zm0 .67c-.844 0-1.633-.22-2.365-.545-.732-.3-1.364-.749-1.903-1.274-.537-.55-.964-1.174-1.274-1.898-.312-.724-.464-1.499-.464-2.323v-.05c0-.824.15-1.573.467-2.323.307-.724.739-1.349 1.281-1.898s1.181-.974 1.923-1.299c.737-.325 1.524-.475 2.368-.475.842 0 1.628.175 2.363.475.729.325 1.366.749 1.906 1.299.532.55.957 1.199 1.274 1.923.31.724.465 1.511.465 2.323v.038c0 .824-.155 1.598-.467 2.323-.315.724-.739 1.369-1.281 1.918-.542.55-1.181.989-1.923 1.311-.739.317-1.531.475-2.37.475z" fill="#fff" fill-rule="evenodd"/></g></g></g></svg>