<svg height="512" viewBox="0 0 64 64" width="512" xmlns="http://www.w3.org/2000/svg"><g id="_14_Popular_Video" data-name="14 Popular Video"><path d="m43 13h-8.755l7.5-8.331a1 1 0 0 0 -1.486-1.338l-8.259 9.174-8.257-9.174a1 1 0 0 0 -1.486 1.338l7.498 8.331h-8.755a13.015 13.015 0 0 0 -13 13v22a13.015 13.015 0 0 0 13 13h22a13.015 13.015 0 0 0 13-13v-22a13.015 13.015 0 0 0 -13-13z" fill="#faa629"/><path d="m43 13h-8.755l7.5-8.331a1 1 0 0 0 -1.486-1.338l-8.259 9.174v48.495h11a13.015 13.015 0 0 0 13-13v-22a13.015 13.015 0 0 0 -13-13z" fill="#f8981d"/><path d="m46.947 32.679a1 1 0 0 0 -.848-.674l-9.318-.92-3.881-8.021a1.042 1.042 0 0 0 -1.8 0l-3.881 8.021-9.318.92a1 1 0 0 0 -.586 1.724l6.912 6.484-2.2 10.073a1 1 0 0 0 1.517 1.056l8.456-5.432 8.46 5.432a1 1 0 0 0 1.517-1.056l-2.2-10.073 6.912-6.484a1 1 0 0 0 .258-1.05z" fill="#9b51a0"/><path d="m46.947 32.679a1 1 0 0 0 -.848-.674l-9.318-.92-3.881-8.021a.977.977 0 0 0 -.9-.517v23.363l8.46 5.432a1 1 0 0 0 1.517-1.056l-2.2-10.073 6.912-6.484a1 1 0 0 0 .258-1.05z" fill="#903e97"/></g></svg>