<svg xmlns="http://www.w3.org/2000/svg" style="display: none;"><symbol id="netflix" viewBox="0 0 64 64"><title>netflix</title><g fill-rule="evenodd"><path d="m48 64h-32a16.0007 16.0007 0 0 1 -16-16v-32a16.0007 16.0007 0 0 1 16-16h32a16 16 0 0 1 16 16v32a16 16 0 0 1 -16 16" fill="#2d2d2d"/><path d="m30 18h18a9.0006 9.0006 0 0 0 .92-17.954c-.306-.017-.609-.046-.92-.046h-32a16.0007 16.0007 0 0 0 -16 16v32a30.0007 30.0007 0 0 1 30-30" fill="#464646"/><path d="m48 32a16 16 0 1 0 16 16v-32a16 16 0 0 1 -16 16" fill="#141414"/><path d="m27 12a1 1 0 0 1 1 1v39.3344a1 1 0 0 1 -.944.9983c-1.866.1007-3.199.2122-4.835.3976a2.0007 2.0007 0 0 1 -2.221-1.9872v-38.7431a1 1 0 0 1 1-1z" fill="#d20014"/><path d="m44 13a2 2 0 0 0 -2-2h-4a2 2 0 0 0 -2 2v39a1 1 0 0 0 1 1h6a1 1 0 0 0 1-1z" fill="#d20014"/></g><path d="m29.045 12.3245a2.0017 2.0017 0 0 0 -1.883-1.3245h-5.164a1.9977 1.9977 0 0 0 -1.998 1.998v-.0037a.3472.3472 0 0 1 .674-.1172c2.59 7.2178 11.871 33.082 14.043 39.1342a2 2 0 0 0 1.799 1.3221c2.07.0963 4.091.2836 5.51.4352a1.78 1.78 0 0 0 1.973-1.7686h.001v.0055a.3472.3472 0 0 1 -.674.1172c-2.614-7.2841-12.05-33.5804-14.281-39.7982z" fill="#ff0a1e"/></symbol><symbol id="disney-logo" viewBox="0 0 534 302"><title>disney-logo</title><style type="text/css"> .st0{fill:#01147B;} .st1{fill:url(#SVGID_1_);} </style><g> <path class="st0" d="M241.7,203.4c0.3,0,0.3,0,0.6,0.1c4.6,0.6,9.1,1.4,12.5,3c3.2,1.4,5.1,3.2,6.8,6.4c2.6,4.8,2.8,11.5,0.4,16.6 c-1.8,3.8-5.6,7-9.1,8.7c-3.6,1.8-7.2,2.6-11.3,3.1c-7.2,0.8-15-0.7-21.4-3.8c-3.8-1.9-8.5-5.1-10.9-9.2c-1.7-3-1.7-7,0.4-9.9 c3.4-4.6,10.6-5.6,16-5.4c4.1,0.2,11.6,1.4,15.5,2.8c1.1,0.4,5.1,2,5.8,2.7c0.5,0.5,0.8,1.2,0.6,1.9c-0.9,2.7-7.6,4.2-9.5,4.5 c-5.2,0.8-7.8-1.2-13.7-3.5c-1.5-0.6-3.4-1.2-4.9-1.3c-2.7-0.3-5.9,0.5-6.4,3.4c-0.3,1.5,1.5,2.9,2.8,3.5c3.1,1.4,5.7,1.8,8.8,1.9 c9.1,0.1,19.4-1.4,26.9-6.7c1-0.7,2-1.8,2-3.1c0-2.7-4.7-4.4-4.7-4.4c-5-2.1-14.4-3.1-19.1-3.5c-5-0.4-13-1.1-14.9-1.4 c-2-0.3-4.1-0.7-5.8-1.4c-1.7-0.8-3.4-2.5-3.9-4.4c-0.9-3.4,0.2-7.6,2.1-10.4c5-7.2,16.7-9.9,25.5-11c8.5-1.1,22.2-1,30.5,3.4 c1.3,0.7,1.9,1.3,1.7,2.7c-0.5,2.6-2.5,4.2-4.8,5c-2.5,0.8-7.6,1.1-9.8,1.2c-10,0.6-22.1,0.3-31.7,2.9c-0.7,0.2-2,0.6-2.5,1 c-1.5,1.6,2.8,2.1,3.7,2.3c0.3,0.1,0.3,0.1,0.6,0.1L241.7,203.4 M182,158.7c0,0,1.6-2.4,3-4.3c2.5-3.4,7-8.1,10.4-11 c1-0.9,2.3-1.9,2.3-1.9s-1.9,0.2-3,0.4c-2.6,0.5-6.3,3-8.2,4.6c-3.1,2.7-6.5,7-5,10.8C181.7,158,182,158.7,182,158.7 M199.3,163.3 c4.9-0.3,9.5-1.8,13.8-4.1c4.2-2.3,10.4-6.9,9.7-12.3c-0.2-1.7-1.3-3.1-2.8-3.7c-1.9-0.8-2.8-0.7-5.2,0c-1.7,0.5-2.5,0.8-4.2,1.8 c-4.8,2.8-11.7,8.8-15.4,13.6c-0.9,1.1-1.7,2.4-2.4,3.3c-0.4,0.5-0.8,1-0.7,1.2C192.3,163.5,197.4,163.5,199.3,163.3 M186.8,172.5 c-0.5,0.5-1,1.8-1.6,2.8c-0.3,0.5-0.8,1.1-1.2,1.4c-1.3,0.9-2.4,1-3.6-0.1c-1.7-1.5-2.7-3.9-2.8-6.2c0-1,0.1-2.1-0.1-3 c-0.3-1.4-1.7-2.9-2.5-4.3c-0.9-1.6-1.6-4.4-1.7-6.2c-0.3-5.7,2.7-10.9,6.5-15c3.9-4.2,9-7.6,14.6-10c5.2-2.2,12.9-3.7,18.7-1.7 c1.9,0.6,4.5,2.2,5.8,3.9c0.3,0.3,0.5,0.7,0.8,0.9c0.3,0.2,0.9,0.2,1.5,0.3c1.8,0.3,4.5,1.7,5.6,2.6c2.2,1.9,3.4,3.7,3.9,6.3 c1.1,5.2-1.9,11-5.3,14.5c-5.9,6-11.7,10.2-19.2,13.2c-3.3,1.3-8.4,2.5-12.2,2.2c-1.2-0.1-2.4-0.4-3.5-0.5 c-0.6-0.1-2.7-0.6-2.9-0.7C187.2,172.6,186.9,172.5,186.8,172.5 M193.5,184.1c0.2,0,0.6,0.1,0.9,0.3c2.6,1,3.7,3.4,4.4,6.1 c1.5,6.2,2.1,20,2.4,25.4c0.2,4,0.3,8,0.5,12c0.1,3.4,0.4,7.9-0.3,11c-0.3,1.1-1,2.5-2.1,3.1c-1.3,0.8-4.1,0.9-5.7,0.5 c-3.9-0.8-5.1-3.3-5.7-7.1c-1.3-9.1-0.7-27,0.1-34.5c0.3-2.5,1.2-10.5,2.5-13.8C190.9,186.1,191.9,183.8,193.5,184.1 M76.2,199.3 c0,0-5.7,0.4-9.7,0.8c-5,0.5-14.5,2.2-19.9,4.1c-1.6,0.6-5,2-5.2,3.7c-0.3,1.7,0.8,3.1,2,4.5c0.7,0.8,4.6,4.6,5.7,5.5 c4.6,3.9,14,9.8,20.9,12.7c2.4,1,6.3,2.4,6.3,2.4s-0.3-11.2-0.2-22.2C76.1,205,76.2,199.3,76.2,199.3 M181.4,203.7 c0.3,3-0.4,8.7-0.6,9.4c-0.2,1.7-1.5,5.7-1.8,6.2c-1.1,2.4-2.1,4.4-3.2,6.4c-1.9,3.4-6.4,8.8-9,11.1c-9.9,8.5-25.2,13.4-38.3,15 c-8.9,1.1-19.1,0.9-28.6-0.8c-3.2-0.6-8.1-1.7-8.1-1.7s0,1.9-0.1,3.3c-0.1,0.6-0.5,2.3-0.8,2.8c-0.7,1.4-1.8,2.1-3.4,2.5 c-2,0.4-4.1,0.5-5.9-0.3c-3-1.3-4.1-4.1-4.6-7.3c-0.4-2.6-0.9-7.1-0.9-7.1s-2.2-1.1-4.1-2c-5.7-2.8-11.2-6.3-16-9.8 c-1.3-1-7-5.7-8.3-6.9c-3.5-3.3-6.7-6.7-9.1-10.9c-1.9-3.3-2.4-6.3-1-9.8c2-4.9,9-8.6,13.8-10.7c3.5-1.6,14.6-5.2,19.1-5.8 c2.2-0.3,5.5-0.9,5.7-1c0.1-0.1,0.1-0.1,0.2-0.2c0.1-0.1,0.3-5,0.2-6.8c0-1.8,1.3-13.2,1.7-15.7c0.2-1.3,1.2-6.4,2.2-7.7 c0.7-0.9,1.8-0.8,2.8-0.2c5.2,3.3,6.8,14.6,7.2,20.3c0.2,3.5,0.4,8.8,0.4,8.8s6-0.2,9.7-0.1c3.6,0.1,7.6,0.7,11.3,1.2 c4.8,0.8,14.1,2.8,19.4,5.5c4.4,2.2,8.5,6,9.9,10c1.2,3.6,1.1,6.2-0.8,9.5c-2.1,3.7-6.1,6.5-10.2,6.7c-1.2,0.1-5.8-0.5-7.2-1.6 c-0.5-0.4-0.5-1.2-0.1-1.7c0.1-0.2,2.3-1.3,3.5-2c0.6-0.3,1.2-0.7,1.6-1.2c1-0.9,2-1.9,1.9-3.1c-0.1-1.5-1.8-2.5-3.3-3.1 c-7.3-2.9-21.9-5.3-28.9-5.7c-2.8-0.2-6.7-0.3-6.7-0.3l0.8,38.9c0,0,3.2,0.6,5.8,1c1.5,0.2,7.7,0.8,9.3,0.8 c12.6,0.3,26.6-0.8,38.1-6.2c5.1-2.4,9.7-5.3,13.2-9.4c4.6-5.3,7.1-12.6,6.4-20.2c-0.7-8.3-6.5-18.1-11.2-24.1 c-12.3-15.8-33.4-28.9-52-36.5c-19-7.8-37.7-12.3-57.8-13c-5.2-0.2-16.5,0.1-22.2,1.7c-0.8,0.2-1.6,0.5-2.4,0.7 c-0.6,0.1-1.5,0.5-1.8,0.8c-0.1,0.1-0.3,0.3-0.3,0.3s0.4,0.2,0.7,0.3c0.6,0.3,3.2,0.4,4.5,0.7c1.2,0.2,2.4,0.8,2.9,1.7 c0.5,0.8,0.5,1.5,0,2.2c-1.3,1.6-6.2,1.3-8.3,1c-2.2-0.4-5-1-5.5-3c-0.6-2.3,0.5-4.5,1.7-6.6c2.4-4.2,5.7-6.3,10.7-7.7 c7-1.9,15.9-3.3,22.5-3.5c15-0.6,29.2,2.1,43.8,6.5c8.3,2.5,19.2,6.7,27.2,10.6c5.7,2.8,14.8,7.8,19.8,11.2 c1.6,1.1,11,7.9,12.4,9.1c3,2.5,7,6,9.9,8.9c5.6,5.5,12.5,13.9,15.8,20.7c0.8,1.6,1.4,3.2,2.5,5c0.4,0.6,1.9,4.4,2.1,5.5 c0.3,1.1,0.6,2.7,0.7,2.8C180.8,199.2,181.5,202.4,181.4,203.7z M370.3,195.1c-7,1.6-25.5,2.5-25.5,2.5l-2.3,7.3 c0,0,9.2-0.8,16-0.1c0,0,2.2-0.3,2.4,2.5c0.1,2.5-0.2,5.3-0.2,5.3s-0.1,1.7-2.5,2.1c-2.5,0.4-19.9,1.1-19.9,1.1l-2.8,9.5 c0,0-1,2.2,1.3,1.6c2.2-0.6,20.4-4,22.8-3.5c2.5,0.6,5.4,4,4.5,7.1c-1,3.8-19.2,15.4-30.2,14.6c0,0-5.8,0.4-10.7-7.5 c-4.6-7.5,1.7-21.7,1.7-21.7s-2.9-6.6-0.8-8.9c0,0,1.2-1.1,4.9-1.4l4.5-9.2c0,0-5.1,0.3-8.1-3.4c-2.8-3.5-3-5.2-0.9-6.1 c2.3-1.1,23.5-5,38-4.5c0,0,5.1-0.5,9.4,8.3C371.8,190.7,373.9,194.3,370.3,195.1L370.3,195.1z M315.6,230.6 c-1.9,4.4-6.8,9.1-12.9,6.2c-6-2.9-15.7-22.6-15.7-22.6s-3.7-7.3-4.4-7.2c0,0-0.8-1.4-1.3,6.6c-0.5,8,0.1,23.6-3.1,26 c-3,2.5-6.7,1.5-8.6-1.4c-1.7-2.8-2.4-9.6-1.5-21.4c1.1-11.8,3.9-24.4,7.4-28.3c3.5-3.9,6.3-1.1,7.4,0c0,0,4.7,4.3,12.4,16.7 l1.4,2.3c0,0,7,11.8,7.8,11.8c0,0,0.6,0.5,1.1,0.1c0.7-0.2,0.4-4,0.4-4s-1.5-12.9-7.9-34.6c0,0-1-2.7-0.3-5.3 c0.7-2.6,3.2-1.4,3.2-1.4s9.9,5,14.8,21.2C320.7,211.5,317.4,226.2,315.6,230.6L315.6,230.6z M422.5,220.9 c-4.5,7.9-17.3,24.4-34.3,20.5c-5.6,13.6-10.3,27.4-13,47.9c0,0-0.6,4-3.9,2.6c-3.3-1.2-8.7-6.6-9.8-14.2 c-1.2-10,3.3-26.8,12.3-46.1c-2.6-4.3-4.4-10.4-2.9-19.2c0,0,2.3-16.2,18.6-30.8c0,0,2-1.7,3.1-1.2c1.2,0.5,0.7,5.8-0.3,8.4 c-1,2.6-8.3,15.1-8.3,15.1s-4.5,8.5-3.3,15.2c8.5-13.1,28-39.6,40-31.3c4,2.9,5.9,9.2,5.9,16C426.6,209.8,425.2,216.1,422.5,220.9 L422.5,220.9z M419,200.1c0,0-0.7-5.2-5.8,0.5c-4.4,4.9-12.3,14-18.7,26.3c6.7-0.8,13.1-4.4,15.1-6.2 C412.8,217.9,420.2,210.2,419,200.1L419,200.1z M516.1,198.9H485c-0.6-10.6-1.9-20.9-3.9-31.5c-0.2-1.1-1.2-1.9-2.3-1.9h-7.2 c-0.6,0-1.2,0.3-1.6,0.8c-0.4,0.5-0.6,1.1-0.4,1.8c2,10.3,3.3,20.4,4,30.9h-29.9c-1.4,0-2.5,1.1-2.5,2.5v6.5c0,1.4,1.1,2.5,2.5,2.5 h30.4c0,1.6,0,3,0,4.4c0,9.3-0.4,17-1.3,25.7c-0.1,0.7,0.1,1.3,0.6,1.8c0.4,0.5,1.1,0.8,1.7,0.8h6.7c1.3,0,2.4-1,2.5-2.3 c0.9-8.7,1.3-16.5,1.3-26c0-1.3,0-2.8,0-4.4h30.7c1.4,0,2.5-1.1,2.5-2.5v-6.5C518.6,200,517.5,198.9,516.1,198.9z"/> <radialGradient id="SVGID_1_" cx="1775.1387" cy="146.1262" r="756.5562" gradientTransform="matrix(0.4759 -4.318301e-05 4.318301e-05 0.4759 -374.4723 83.8524)" gradientUnits="userSpaceOnUse"> <stop offset="0" style="stop-color:#01147B"/> <stop offset="2.549020e-02" style="stop-color:#011098"/> <stop offset="6.430855e-02" style="stop-color:#010ABD"/> <stop offset="0.1032" style="stop-color:#0006DA"/> <stop offset="0.1416" style="stop-color:#0003EE"/> <stop offset="0.1794" style="stop-color:#0001FB"/> <stop offset="0.2159" style="stop-color:#0000FF"/> <stop offset="1" style="stop-color:#00FFFF;stop-opacity:0"/> </radialGradient> <path class="st1" d="M476.8,150.3c-15.8-39-42.7-72.3-77.5-96.1c-35.7-24.5-77.5-37.4-121-37.4c-71.9,0-138.5,35.7-178.3,95.5 c-0.4,0.6-0.5,1.5-0.3,2.2c0.3,0.8,0.8,1.3,1.6,1.6l5.6,1.9c0.3,0.1,0.7,0.2,1,0.2c1,0,2-0.5,2.6-1.4c18.3-26.8,43-49.2,71.5-64.6 c29.4-15.9,62.8-24.4,96.4-24.4c40.7,0,79.9,12,113.4,34.7c32.7,22.1,58.2,53,73.5,89.3c0.5,1.1,1.5,1.8,2.7,1.8l6.7,0 c0.8,0,1.5-0.4,1.9-1C477.1,151.8,477.1,151,476.8,150.3z"/> </g></symbol><symbol id="star-logo" viewBox="0 0 999.99957 285.47847"><title>star-logo</title><metadata id="metadata17"/><defs id="defs15"><linearGradient inkscape:collect="always" xlink:href="#linearGradient923" id="linearGradient952" x1="808" y1="-5.6176453" x2="806.11475" y2="458.38235" gradientUnits="userSpaceOnUse"/><linearGradient y2="505.2988" x2="440.56812" y1="119.3981" x1="440.56812" gradientUnits="userSpaceOnUse" id="linearGradient923"><stop id="stop27-9" style="stop-color:#11152E" offset="0.2"/><stop id="stop29-6" style="stop-color:#020814" offset="0.8"/></linearGradient><linearGradient y2="117.4916" x2="996.28888" y1="500.29071" x1="613.48981" gradientUnits="userSpaceOnUse" id="Fill-1_1_"><stop id="stop4" style="stop-color:#FF1C6B" offset="0.3296"/><stop id="stop6" style="stop-color:#FF9702" offset="0.676"/></linearGradient><linearGradient inkscape:collect="always" xlink:href="#linearGradient923" id="linearGradient95" gradientUnits="userSpaceOnUse" x1="808" y1="-5.6176453" x2="806.11475" y2="458.38235"/><linearGradient y2="505.0654" x2="1251.0979" y1="119.4706" x1="1251.0979" gradientUnits="userSpaceOnUse" id="SVGID_1_"><stop id="stop13" style="stop-color:#11152E;fill-opacity:1.0;fill:url(#linearGradient952)" offset="0.2"/><stop id="stop15" style="stop-color:#020814;fill-opacity:1.0;fill:url(#linearGradient952)" offset="0.8"/></linearGradient><linearGradient y2="505.7063" x2="140.119" y1="119.5431" x1="140.119" gradientUnits="userSpaceOnUse" id="SVGID_2_"><stop id="stop20" style="stop-color:#11152E;fill-opacity:1.0;fill:url(#linearGradient952)" offset="0.2"/><stop id="stop22" style="stop-color:#020814;fill-opacity:1.0;fill:url(#linearGradient952)" offset="0.8"/></linearGradient><linearGradient y2="505.2988" x2="440.56812" y1="119.3981" x1="440.56812" gradientUnits="userSpaceOnUse" id="SVGID_3_"><stop id="stop27" style="stop-color:#11152E;fill-opacity:1.0;fill:url(#linearGradient952)" offset="0.2"/><stop id="stop29" style="stop-color:#020814;fill-opacity:1.0;fill:url(#linearGradient952)" offset="0.8"/></linearGradient> <linearGradient id="path3144_1_" gradientUnits="userSpaceOnUse" x1="432.90948" y1="-126.3625" x2="646.26062" y2="86.792999" gradientTransform="matrix(0.98565272,0,0,-0.98565272,-81.99061,148.87198)"> <stop offset="0.28" style="stop-color:#FA1660" id="stop8"/> <stop offset="0.78" style="stop-color:#FF7D17" id="stop10"/> </linearGradient> </defs><style type="text/css" id="style2"> .st0{fill:#241C32;} .st1{fill:url(#path3144_1_);} </style><g id="g101"><path inkscape:connector-curvature="0" id="path935" style="font-style:normal;font-variant:normal;font-weight:bold;font-stretch:normal;font-size:590.996px;line-height:1;font-family:'Century Gothic';-inkscape-font-specification:'Century Gothic Bold';text-align:center;letter-spacing:3.46px;word-spacing:0px;text-anchor:middle;fill:#241c32;fill-opacity:1;stroke-width:3.64691" d="M 1458.2986,257.71621 V 123.83587 h 81.8553 v 133.88034 h 122.4554 v 89.25355 h -122.4554 v 133.52331 h -81.8553 V 346.96976 h -122.7827 v -89.25355 z" transform="matrix(0.59343609,0,0,0.52120939,13.347199,-3.2856471)"/><path id="path11" class="st0" d="m 661.90785,80.273765 h 30.55079 c 18.39282,0 30.16111,9.508154 30.16111,26.108455 0,18.08108 -11.76829,29.84937 -30.16111,29.84937 h -30.55079 z m 52.60659,92.353795 c 31.64189,-4.05265 57.75035,-31.25221 57.75035,-65.85566 0,-44.890959 -30.55079,-69.518638 -79.80615,-69.518638 H 612.96423 V 263.18884 h 48.94362 v -90.56128 l 60.7119,90.48334 H 779.279 Z" style="stroke-width:0.779357"/><polygon id="polygon13" class="st0" points="409.3,104.8 409.3,47.7 218.1,47.7 218.1,104.8 281.8,104.8 281.8,337.5 345.6,337.5 345.6,104.8 " transform="matrix(0.77935694,0,0,0.77935694,0,0.07793569)"/><path id="path15" class="st0" d="M 78.01363,120.41065 C 63.283784,113.78611 57.750349,106.46016 57.750349,96.874068 c 0,-11.066869 9.196412,-20.263281 23.926258,-19.873602 12.85939,0.311742 22.835163,7.325955 29.849373,23.926254 l 42.31908,-18.782499 c -11.76829,-30.161113 -35.69455,-47.77458 -74.272716,-47.77458 -40.838304,0 -70.9994177,26.887814 -70.9994177,62.894105 0,24.627684 12.1579687,44.111604 40.8383037,58.529704 l 31.641892,15.82095 c 17.613467,8.88467 26.108458,15.43127 26.108458,28.29066 0,13.95048 -11.378612,23.92625 -26.108458,23.92625 -15.820946,0 -30.161114,-8.88467 -36.785648,-28.68033 L 0,208.01037 c 10.287512,37.17532 40.838304,58.91938 80.585508,58.91938 43.020502,0 76.143172,-27.58923 76.143172,-67.33644 0,-30.55079 -16.52237,-50.81407 -48.24219,-65.0763 z" style="stroke-width:0.779357"/><path id="path3144-6" inkscape:connector-curvature="0" class="st1" d="M 599.71517,108.9541 H 485.07176 L 449.61102,0 414.15028,108.9541 H 299.50687 l 91.96412,67.49231 c 0,0 44.9689,-29.61556 99.44595,-40.76037 -80.3517,59.30907 -123.99569,118.15052 -123.99569,118.15052 v 0 0 l -10.05371,31.64189 92.74348,-67.33644 92.74347,67.33644 -35.3828,-109.03204 z" style="fill:url(#path3144_1_);stroke-width:0.779357"/></g></symbol><symbol id="hbo" viewBox="0 0 512.599 512.599"><title>hbo</title><g><path d="m457.21 512.599h-401.821c-30.59 0-55.389-24.799-55.389-55.389v-401.821c0-30.59 24.799-55.389 55.389-55.389h401.82c30.591 0 55.389 24.799 55.389 55.389v401.82c.001 30.591-24.798 55.39-55.388 55.39z"/><path d="m457.21 512.599h-401.821c-30.59 0-55.389-24.799-55.389-55.389v-401.821c0-30.59 24.799-55.389 55.389-55.389h401.82c30.591 0 55.389 24.799 55.389 55.389v401.82c.001 30.591-24.798 55.39-55.388 55.39z"/></g><g><path d="m372 175.563h-.057c-.847 0-1.69.012-2.521.036h4.976c-.797-.023-1.595-.035-2.398-.036" fill="#fff"/><path d="m372.073 224.379c-17.466 0-31.62 14.154-31.62 31.62 0 17.464 14.154 31.621 31.62 31.621 17.464 0 31.62-14.157 31.62-31.621 0-17.465-14.156-31.62-31.62-31.62m-196.743-46.133h-42.929v58.794h-27.874v-58.794h-44.227l.157 158.05h44.076v-61.325h27.849v61.317h42.934l.014.015zm49.761 121.175v-26.673h21.729l.025-.003c6.319 0 11.289 6.244 11.289 13.338 0 7.118-4.996 13.338-11.314 13.338zm67.01-31.333c-3.346-5.137-11.239-11.459-16.284-12.089h.025c4.97-.634 13.262-6.323 16.184-9.955-1.024 4.501-1.123 17.533.075 22.044m39.75-12.089c0-22.216 18.008-40.226 40.222-40.226s40.227 18.008 40.227 40.224-18.013 40.224-40.227 40.224c-22.212 0-40.219-18.008-40.222-40.222v-.002zm-106.686-15.88v-26.707h21.73l.025.003c6.319 0 11.289 6.239 11.289 13.346 0 7.111-4.996 13.357-11.314 13.357h-21.73m149.233-64.519h-4.976c-42.513 1.208-64.343 32.741-69.803 45.622.075-19.732-19.381-43.009-42.11-43.034h-73.252v158.025l68.3.025c27.539 0 47.138-23.877 47.171-44.333 6.288 12.887 28.093 45.107 72.305 45.107h.011l-.018.025c44.258-.025 80.299-36.814 80.274-81.097-.001-44.39-34.724-79.073-77.902-80.34" fill="#fff"/><g><path clip-rule="evenodd" d="m443.52 189.186c.39 0 .694-.087.917-.267.225-.175.35-.415.35-.714v-.032c0-.325-.1-.564-.325-.732-.225-.167-.525-.25-.899-.25h-1.548v1.998h1.573zm-2.762-3.077h2.815c.817 0 1.459.25 1.911.699.345.325.52.774.52 1.324v.05c0 .524-.135.924-.412 1.249-.275.325-.624.549-1.057.674l1.698 2.373h-1.431l-1.533-2.173h-1.311v2.173h-1.199v-6.372.003zm2.415 8.766c.764 0 1.474-.15 2.138-.425.674-.275 1.249-.674 1.723-1.149.5-.475.874-1.049 1.149-1.723.275-.649.425-1.349.425-2.098v-.052c0-.744-.15-1.441-.4-2.098-.275-.649-.649-1.224-1.124-1.713-.475-.487-1.049-.874-1.698-1.156-.649-.275-1.349-.425-2.123-.425-.749 0-1.474.15-2.123.45s-1.224.674-1.703 1.174c-.482.5-.864 1.074-1.141 1.723-.275.674-.415 1.374-.415 2.123v.045c0 .749.135 1.448.407 2.098.275.649.649 1.224 1.124 1.716.475.484 1.049.874 1.698 1.149.649.286 1.294.361 2.063.361zm0 .67c-.844 0-1.633-.22-2.365-.545-.732-.3-1.364-.749-1.903-1.274-.537-.55-.964-1.174-1.274-1.898-.312-.724-.464-1.499-.464-2.323v-.05c0-.824.15-1.573.467-2.323.307-.724.739-1.349 1.281-1.898s1.181-.974 1.923-1.299c.737-.325 1.524-.475 2.368-.475.842 0 1.628.175 2.363.475.729.325 1.366.749 1.906 1.299.532.55.957 1.199 1.274 1.923.31.724.465 1.511.465 2.323v.038c0 .824-.155 1.598-.467 2.323-.315.724-.739 1.369-1.281 1.918-.542.55-1.181.989-1.923 1.311-.739.317-1.531.475-2.37.475z" fill="#fff" fill-rule="evenodd"/></g></g></symbol><symbol id="amazon-prime-video-logo" viewBox="0 0 800.3 246.3"><title>amazon-prime-video-logo</title><title>Prime Video Logo</title><g id="Layer_2_1_"> <g id="Ebene_1"> <path style="fill:#D1EFFA;" d="M396.5,246.3v-0.4c0.4-0.5,1.1-0.8,1.7-0.7c2.9-0.1,5.7-0.1,8.6,0c0.6,0,1.3,0.2,1.7,0.7v0.4H396.5 z"/> <path style="fill:#00A8E1;" d="M408.5,245.9c-4-0.1-8-0.1-12,0c-5.5-0.3-11-0.5-16.5-0.9c-14.6-1.1-29.1-3.3-43.3-6.6 c-49.1-11.4-92.2-34.3-129.8-67.6c-3.5-3.1-6.8-6.3-10.2-9.5c-0.8-0.7-1.5-1.7-1.9-2.7c-0.6-1.4-0.3-2.9,0.7-4 c1-1.1,2.6-1.5,4-0.9c0.9,0.4,1.8,0.8,2.6,1.3c35.9,22.2,75.1,38.4,116.2,48c13.8,3.2,27.7,5.7,41.7,7.5 c20.1,2.5,40.4,3.4,60.6,2.7c10.9-0.3,21.7-1.3,32.5-2.7c25.2-3.2,50.1-8.9,74.2-16.9c12.7-4.2,25.1-9,37.2-14.6 c1.8-1,4-1.3,6-0.8c3.3,0.8,5.3,4.2,4.5,7.5c-0.1,0.4-0.3,0.9-0.5,1.3c-0.8,1.5-1.9,2.8-3.3,3.8c-11.5,9-23.9,16.9-37,23.5 c-24.7,12.5-51.1,21.4-78.3,26.5C440.2,243.6,424.4,245.3,408.5,245.9z"/> <path style="fill:#00A8E1;" d="M260.4,43.2c2.5-1.5,5.1-3.1,7.8-4.5c7-3.6,14.8-5.4,22.7-5c5.7,0.3,10.9,1.9,14.9,6.1 c3.8,3.9,5.2,8.7,5.6,13.9c0.1,1.1,0.1,2.2,0.1,3.4v51.8c0,4.5-0.6,5.1-5.1,5.1h-12.2c-0.8,0-1.6,0-2.4-0.1 c-1.2-0.1-2.2-1.1-2.4-2.3c-0.2-1.1-0.2-2.2-0.2-3.3V62c0.1-1.9-0.1-3.7-0.6-5.5c-0.8-3.1-3.6-5.3-6.8-5.5 c-5.9-0.4-11.8,0.8-17.2,3.3c-0.8,0.2-1.3,1-1.2,1.8v52.6c0,1,0,1.9-0.2,2.9c0,1.4-1.1,2.4-2.5,2.4c0,0,0,0,0,0 c-1.5,0.1-3,0.1-4.6,0.1h-10.6c-3.7,0-4.5-0.9-4.5-4.6V62.2c0-1.7-0.1-3.5-0.5-5.2c-0.7-3.4-3.6-5.8-7-6c-6-0.4-12.1,0.8-17.5,3.4 c-0.8,0.2-1.3,1.1-1.1,1.9v53.3c0,3.7-0.8,4.5-4.5,4.5H197c-3.5,0-4.4-1-4.4-4.4V40.3c0-0.8,0.1-1.6,0.3-2.4 c0.4-1.2,1.6-1.9,2.8-1.9h12.5c1.8,0,2.9,1.1,3.5,2.8c0.5,1.4,0.8,2.7,1.3,4.2c1,0,1.6-0.7,2.3-1.1c5.5-3.4,11.3-6.3,17.8-7.5 c5-1,10-1,15,0c4.7,1,8.9,3.8,11.6,7.8c0.2,0.3,0.4,0.5,0.6,0.7C260.2,43,260.3,43,260.4,43.2z"/> <path style="fill:#232F3E;" d="M467.7,93c0.6-2,1.2-3.9,1.8-5.9c4.6-15.5,9.2-30.9,13.8-46.4l0.6-1.8c0.5-1.8,2.2-2.9,4-2.9h15.2 c3.8,0,4.6,1.1,3.3,4.7l-6,15.9c-6.7,17.4-13.4,34.9-20.1,52.3c-0.2,0.6-0.5,1.2-0.7,1.8c-0.7,2.1-2.8,3.5-5,3.3 c-4.4-0.1-8.8-0.1-13.2,0c-3.1,0.1-4.9-1.3-6-4.1c-2.5-6.6-5.1-13.3-7.6-19.9c-6-15.7-12.1-31.4-18.1-47.2c-0.6-1.2-1-2.6-1.3-3.9 c-0.3-2,0.4-3,2.4-3c5.7-0.1,11.4,0,17,0c2.4,0,3.5,1.6,4.1,3.7c1.1,3.8,2.2,7.7,3.4,11.5c4.1,13.9,8.1,27.9,12.2,41.8 C467.4,93,467.5,93,467.7,93z"/> <path style="fill:#00A8E1;" d="M112.6,47c0.7-0.2,1.3-0.6,1.7-1.2c1.8-1.8,3.7-3.5,5.7-5.1c5.2-4,11.7-6,18.2-5.5 c2.6,0.1,3.5,0.9,3.7,3.4c0.2,3.4,0.1,6.9,0.1,10.3c0.1,1.4,0,2.7-0.2,4.1c-0.4,1.8-1.1,2.5-2.9,2.7c-1.4,0.1-2.7,0-4.1-0.1 c-6.7-0.6-13.2,0.7-19.5,2.8c-1.4,0.5-1.4,1.5-1.4,2.6v48c0,0.9,0,1.7-0.1,2.6c-0.1,1.3-1.1,2.3-2.4,2.3c-0.7,0.1-1.5,0.1-2.2,0.1 h-13c-0.7,0-1.5,0-2.2-0.1c-1.3-0.1-2.3-1.2-2.4-2.5c-0.1-0.8-0.1-1.6-0.1-2.4V41c0-4.6,0.5-5.1,5.1-5.1h9.6 c2.6,0,3.8,0.9,4.5,3.4S112,44.3,112.6,47z"/> <path style="fill:#00A8E1;" d="M580.4,148.4c6.6,0.2,13.1,0.6,19.5,2.3c1.8,0.5,3.5,1.1,5.2,1.9c2.3,0.9,3.8,3.1,4.1,5.5 c0.4,2.8,0.5,5.7,0.3,8.6c-1.3,17.1-6.6,33.6-15.4,48.3c-3.2,5.3-7.1,10.1-11.6,14.3c-0.9,0.9-2,1.6-3.2,2 c-1.9,0.5-3.1-0.5-3.2-2.4c0.1-1,0.3-2,0.7-3c3.5-9.4,6.9-18.7,9.6-28.4c1.6-5.3,2.7-10.7,3.4-16.2c0.2-2,0.3-4,0.1-6 c-0.1-3.4-2.3-6.3-5.6-7.3c-3.1-1-6.3-1.6-9.6-1.8c-9.2-0.4-18.4,0-27.5,1.2l-12.1,1.5c-1.3,0.1-2.5,0-3.2-1.2s-0.4-2.4,0.3-3.6 c0.8-1.1,1.8-2.1,3-2.8c7.4-5.3,15.7-8.5,24.5-10.6C566.5,149.3,573.4,148.6,580.4,148.4z"/> <path style="fill:#232F3E;" d="M538.5,75v36c-0.2,2-1.1,2.9-3.1,3c-5.4,0.1-10.7,0.1-16.1,0c-2,0-2.9-1-3.1-2.9 c-0.1-0.6-0.1-1.3-0.1-1.9V40c0.1-3.1,0.9-4,4-4h14.4c3.1,0,4,0.9,4,4L538.5,75L538.5,75z"/> <path style="fill:#00A8E1;" d="M151.6,74.8V39.3c0.1-2.4,1-3.3,3.4-3.4c5.2-0.1,10.4-0.1,15.6,0c2.3,0,3,0.7,3.2,3 c0.1,0.9,0.1,1.7,0.1,2.6v66.6c0,1.1-0.1,2.2-0.2,3.3c-0.1,1.3-1.1,2.2-2.4,2.3c-0.6,0.1-1.1,0.1-1.7,0.1h-13.9 c-0.5,0-0.9,0-1.4-0.1c-1.4-0.1-2.6-1.2-2.7-2.6c-0.1-0.8-0.1-1.6-0.1-2.4C151.6,97.6,151.6,86.2,151.6,74.8z"/> <path style="fill:#00A8E1;" d="M163.2,0.1c1.6-0.1,3.2,0.2,4.7,0.7c5.4,1.8,8.2,6.5,7.7,12.6c-0.4,5.2-4.3,9.4-9.5,10.2 c-2.2,0.4-4.5,0.4-6.7,0c-5.7-1.1-9.9-5.3-9.5-12.5C150.5,4,155.2,0.1,163.2,0.1z"/> <path style="fill:#232F3E;" d="M527.4,0.1c2-0.2,4,0.2,5.9,1c3.9,1.5,6.6,5.1,6.8,9.3c0.8,9.1-5.3,13.7-13.4,13.5 c-1.1,0-2.2-0.2-3.3-0.4c-6.2-1.5-9.4-6.3-8.8-13.2c0.5-5.5,4.8-9.6,10.7-10.1C526,0.1,526.7,0,527.4,0.1z"/> <path style="fill:#00A8E1;" d="M76.7,66.6c-0.4-5.2-1.8-10.3-3.9-15c-4.1-8.6-10.4-14.9-20-17.1c-11-2.4-20.9,0-29.9,6.7 c-0.6,0.6-1.3,1.1-2.1,1.5c-0.2-0.1-0.4-0.2-0.4-0.3c-0.3-1-0.5-2-0.8-3c-0.8-2.5-1.8-3.4-4.5-3.4c-3,0-6.1,0.1-9.1,0 c-2.3-0.1-4.4,0.2-6,2C0,73,0,108.1,0.1,143c1.3,2.1,3.3,2.5,5.6,2.4c3.6-0.1,7.2,0,10.8,0c6.3,0,6.3,0,6.3-6.2v-28.5 c0-0.7-0.3-1.5,0.4-2.1c5,3.9,11.1,6.3,17.4,6.9c8.8,0.9,16.8-1.3,23.5-7.3c4.9-4.5,8.5-10.3,10.4-16.7 C77.2,83.3,77.4,75,76.7,66.6z M52.8,87.3c-0.7,3.1-2.3,5.9-4.6,8c-2.6,2.2-5.8,3.5-9.2,3.5c-5.1,0.3-10.1-0.8-14.6-3.2 c-1.1-0.5-1.8-1.6-1.7-2.8V74.7c0-6,0.1-12,0-18c-0.1-1.4,0.7-2.6,2-3.1c5.5-2.6,11.2-3.8,17.2-2.6c4.2,0.6,7.8,3.3,9.5,7.2 c1.5,3.2,2.4,6.7,2.6,10.2C54.6,74.8,54.6,81.2,52.8,87.3z"/> <path style="fill:#232F3E;" d="M800.1,82.2C800.1,82.2,800.1,82.1,800.1,82.2C800.1,82.1,800.1,82.1,800.1,82.2z"/> <path style="fill:#232F3E;" d="M800.2,68.8v0.4c-0.4-0.4-0.6-1-0.4-1.5v-0.8c0,0,0-0.1,0.1-0.1h-0.1v-1h0.2c0-0.1-0.1-0.1-0.1-0.2 c-0.2-1.9-0.6-3.8-1.1-5.6c-3.7-13.2-12-21.9-25.5-25.3c-6.3-1.5-12.7-1.7-19.1-0.7c-13.5,2-23.2,9.2-27.9,22 c-4.6,12.2-4.5,25.6,0.1,37.8c4,11.1,12,18.1,23.5,21c6.1,1.5,12.5,1.9,18.8,1c21-2.5,29.7-18.4,31.1-32.2h-0.1v-1.4 c-0.1-0.6-0.2-1.1,0.4-1.5v0.2c0-0.1,0.1-0.3,0.2-0.4V69C800.3,68.9,800.2,68.9,800.2,68.8z M776.2,87.8c-0.6,2.1-1.5,4-2.8,5.8 c-2.2,3.1-5.7,5.1-9.5,5.4c-1.9,0.2-3.8,0.2-5.7-0.2c-4.2-0.8-7.7-3.6-9.4-7.5c-1.5-3.1-2.4-6.5-2.7-9.9 c-0.5-5.9-0.6-11.8,0.8-17.6c0.5-2.3,1.5-4.6,2.7-6.6c2.2-3.6,6-5.9,10.2-6.2c1.9-0.2,3.8-0.2,5.7,0.2c4,0.8,7.3,3.4,9.1,7.1 c1.7,3.5,2.7,7.4,2.9,11.3c0.1,1.8,0.2,3.6,0.1,5.4C777.9,79.4,777.4,83.7,776.2,87.8z"/> <path style="fill:#232F3E;" d="M624.9,0.8H611c-3.8,0-4.5,0.7-4.5,4.5v32.4c0,0.7,0.3,1.4-0.2,2.1c-0.9-0.1-1.4-0.7-2.1-1.1 c-10.4-6.1-21.3-7.2-32.3-2.1c-7.7,3.6-12.5,10.1-15.6,17.8c-3,7.4-3.7,15.2-3.5,23.1c0,7.4,1.7,14.7,5,21.3 c3.8,7.3,9.3,12.9,17.3,15.3c10.9,3.4,21.1,1.7,30.4-5.2c0.7-0.4,1.1-1.1,2-1.3c0.5,1.1,0.9,2.3,1.1,3.5c0.4,1.6,1.8,2.7,3.5,2.7 h2.4c3.6,0,7.1,0.1,10.6,0c2.8,0,3.6-0.9,3.7-3.8V4.6C628.7,1.5,627.9,0.8,624.9,0.8z M606.6,74.4v18.2c0.2,1.2-0.5,2.3-1.6,2.8 c-4.8,2.7-10.3,3.8-15.7,3c-4.6-0.5-8.6-3.3-10.7-7.4c-1.6-3.2-2.5-6.6-2.8-10.1c-0.8-6.3-0.3-12.7,1.2-18.8 c0.5-1.7,1.1-3.3,2-4.9c2.1-3.9,6.1-6.4,10.5-6.7c5.3-0.5,10.6,0.5,15.4,2.7c1.2,0.4,1.9,1.6,1.8,2.9 C606.5,62.3,606.6,68.3,606.6,74.4L606.6,74.4z"/> <path style="fill:#00A8E1;" d="M348,81.3c7.5,1.4,15.2,1.5,22.7,0.3c4.4-0.6,8.6-1.9,12.5-4c4.5-2.6,7.8-6.2,9.2-11.2 c3.5-12.6-1.9-25.3-15-30c-6.4-2.1-13.2-2.8-19.9-1.9c-15.8,1.8-26.1,10.5-30.8,25.6c-3.3,10.3-2.9,20.8-0.2,31.2 c3.5,13.3,12.3,21.2,25.6,24c7.6,1.7,15.3,1.4,22.9,0.2c4-0.7,8-1.7,11.8-3.2c2.3-0.9,3.5-2.3,3.4-4.9c-0.1-2.4,0-4.9,0-7.4 c0-3-1.2-3.9-4.1-3.2s-5.7,1.3-8.6,1.9c-6.2,1.3-12.6,1.3-18.8,0.2c-8.5-1.7-14-9-13.5-18C346.1,81,347.1,81.1,348,81.3z M345.5,66c0.3-2.4,1-4.7,1.9-6.9c3-7.3,9.3-9.8,15.7-9.4c1.8,0.1,3.6,0.5,5.3,1.2c2.6,1.1,4.3,3.5,4.6,6.3 c0.3,1.7,0.2,3.5-0.3,5.2c-1.2,3.6-4.1,5.1-7.6,5.8c-2.1,0.5-4.3,0.7-6.5,0.5c-3.9,0-7.9-0.3-11.8-0.9 C345.3,67.6,345.3,67.6,345.5,66z"/> <path style="fill:#232F3E;" d="M685.3,82.3c5.8-0.4,11.6-1.5,16.8-4.3c5.3-2.6,9-7.5,10.1-13.3c0.7-3.6,0.7-7.4-0.1-11 c-2.1-9-7.8-14.6-16.4-17.5c-4.8-1.5-9.9-2.1-14.9-1.9c-16.8,0.4-29.6,8.9-34.8,25.7c-3.5,11.1-3,22.4,0.4,33.5 c3.5,11.4,11.5,18.3,22.9,21.4c4.9,1.2,10,1.7,15,1.5c7.3-0.1,14.6-1.5,21.5-4.1c2.9-1.1,3.6-2.1,3.6-5.2v-7.2 c-0.1-2.9-1.3-3.9-4.2-3.2c-2.2,0.6-4.3,1.1-6.5,1.6c-6.7,1.6-13.7,1.9-20.5,0.7c-6.8-1.3-11.4-5.2-13.2-12c-0.5-2-0.9-4-1.1-6.1 c0.5,0,1,0,1.4,0.2C671.9,82.3,678.6,82.8,685.3,82.3z M664.4,66.3c0.7-3.9,1.6-7.7,4-10.9c3.7-4.9,8.8-6.3,14.6-5.7 c0.5,0,0.9,0.2,1.4,0.2c7,1.1,8.7,6.7,7.4,12.1c-1,4-4.3,5.5-8,6.2c-2,0.4-4.1,0.6-6.2,0.5c-4.1-0.1-8.1-0.4-12.1-1 C664.6,67.6,664.2,67.2,664.4,66.3L664.4,66.3z"/> </g> </g></symbol><symbol id="star" viewBox="0 0 64 64"><title>star</title><path d="m43 13h-8.755l7.5-8.331a1 1 0 0 0 -1.486-1.338l-8.259 9.174-8.257-9.174a1 1 0 0 0 -1.486 1.338l7.498 8.331h-8.755a13.015 13.015 0 0 0 -13 13v22a13.015 13.015 0 0 0 13 13h22a13.015 13.015 0 0 0 13-13v-22a13.015 13.015 0 0 0 -13-13z" fill="#faa629"/><path d="m43 13h-8.755l7.5-8.331a1 1 0 0 0 -1.486-1.338l-8.259 9.174v48.495h11a13.015 13.015 0 0 0 13-13v-22a13.015 13.015 0 0 0 -13-13z" fill="#f8981d"/><path d="m46.947 32.679a1 1 0 0 0 -.848-.674l-9.318-.92-3.881-8.021a1.042 1.042 0 0 0 -1.8 0l-3.881 8.021-9.318.92a1 1 0 0 0 -.586 1.724l6.912 6.484-2.2 10.073a1 1 0 0 0 1.517 1.056l8.456-5.432 8.46 5.432a1 1 0 0 0 1.517-1.056l-2.2-10.073 6.912-6.484a1 1 0 0 0 .258-1.05z" fill="#9b51a0"/><path d="m46.947 32.679a1 1 0 0 0 -.848-.674l-9.318-.92-3.881-8.021a.977.977 0 0 0 -.9-.517v23.363l8.46 5.432a1 1 0 0 0 1.517-1.056l-2.2-10.073 6.912-6.484a1 1 0 0 0 .258-1.05z" fill="#903e97"/></symbol><symbol id="f1" viewBox="0 0 497.004 497.004"><title>f1</title><path d="m489.49 158.502h-22.814l-35.205 14.732-120.8 150.268 12.004 15h34.814c2.278 0 4.433-1.036 5.857-2.815l132-165c3.929-4.91.433-12.185-5.856-12.185z" fill="#d40000"/><g fill="#f02e0e"><path d="m302.234 248.502h-94.231c-18.227 0-35.466 8.285-46.852 22.518l-44.237 55.296c-3.929 4.911-.432 12.185 5.857 12.185h57.628c2.278 0 4.433-1.036 5.857-2.815l21.748-27.185h58.231c2.278 0 4.433-1.036 5.857-2.815l36-45c3.927-4.909.431-12.184-5.858-12.184z"/><path d="m374.234 158.502h-166.231c-45.568 0-88.664 20.713-117.13 56.296l-89.215 111.519c-3.929 4.911-.432 12.185 5.857 12.185h57.628c2.278 0 4.433-1.036 5.857-2.815l66.726-83.408c17.079-21.349 42.938-33.778 70.278-33.778h130.231c2.278 0 4.433-1.036 5.857-2.815l36-45c3.927-4.909.431-12.184-5.858-12.184z"/><path d="m426.005 161.317-132 165c-3.929 4.911-.432 12.185 5.857 12.185h22.814l144-180h-34.814c-2.278 0-4.433 1.036-5.857 2.815z"/></g></symbol></svg>