<svg id="visual" viewBox="0 0 900 600" width="900" height="600" xmlns="http://www.w3.org/2000/svg" xmlns:xlink="http://www.w3.org/1999/xlink" version="1.1"><rect width="900" height="600" fill="#f6f6f6"></rect><g><g transform="translate(293 205)"><path d="M0 -62.8L54.4 -31.4L54.4 31.4L0 62.8L-54.4 31.4L-54.4 -31.4Z" fill="none" stroke="#dbecf4" stroke-width="2"></path></g><g transform="translate(151 223)"><path d="M0 -41L35.5 -20.5L35.5 20.5L0 41L-35.5 20.5L-35.5 -20.5Z" stroke="#dbecf4" fill="none" stroke-width="2"></path></g><g transform="translate(21 443)"><path d="M0 -42L36.4 -21L36.4 21L0 42L-36.4 21L-36.4 -21Z" stroke="#dbecf4" fill="none" stroke-width="2"></path></g><g transform="translate(520 444)"><path d="M0 -36L31.2 -18L31.2 18L0 36L-31.2 18L-31.2 -18Z" stroke="#dbecf4" fill="none" stroke-width="2"></path></g><g transform="translate(697 267)"><path d="M0 -38L32.9 -19L32.9 19L0 38L-32.9 19L-32.9 -19Z" stroke="#dbecf4" fill="none" stroke-width="2"></path></g><g transform="translate(882 402)"><path d="M0 -13L11.3 -6.5L11.3 6.5L0 13L-11.3 6.5L-11.3 -6.5Z" stroke="#dbecf4" fill="none" stroke-width="2"></path></g><g transform="translate(538 171)"><path d="M0 -15L13 -7.5L13 7.5L0 15L-13 7.5L-13 -7.5Z" stroke="#dbecf4" fill="none" stroke-width="2"></path></g><g transform="translate(757 500)"><path d="M0 -54L46.8 -27L46.8 27L0 54L-46.8 27L-46.8 -27Z" stroke="#dbecf4" fill="none" stroke-width="2"></path></g><g transform="translate(853 589)"><path d="M0 -22L19.1 -11L19.1 11L0 22L-19.1 11L-19.1 -11Z" stroke="#dbecf4" fill="none" stroke-width="2"></path></g><g transform="translate(324 332)"><path d="M0 -18L15.6 -9L15.6 9L0 18L-15.6 9L-15.6 -9Z" stroke="#dbecf4" fill="none" stroke-width="2"></path></g><g transform="translate(831 40)"><path d="M0 -54L46.8 -27L46.8 27L0 54L-46.8 27L-46.8 -27Z" stroke="#dbecf4" fill="none" stroke-width="2"></path></g><g transform="translate(641 579)"><path d="M0 -13L11.3 -6.5L11.3 6.5L0 13L-11.3 6.5L-11.3 -6.5Z" stroke="#dbecf4" fill="none" stroke-width="2"></path></g><g transform="translate(525 39)"><path d="M0 -9L7.8 -4.5L7.8 4.5L0 9L-7.8 4.5L-7.8 -4.5Z" stroke="#dbecf4" fill="none" stroke-width="2"></path></g><g transform="translate(45 133)"><path d="M0 -45L39 -22.5L39 22.5L0 45L-39 22.5L-39 -22.5Z" stroke="#dbecf4" fill="none" stroke-width="2"></path></g><g transform="translate(500 314)"><path d="M0 -57L49.4 -28.5L49.4 28.5L0 57L-49.4 28.5L-49.4 -28.5Z" stroke="#dbecf4" fill="none" stroke-width="2"></path></g><g transform="translate(858 254)"><path d="M0 -27L23.4 -13.5L23.4 13.5L0 27L-23.4 13.5L-23.4 -13.5Z" stroke="#dbecf4" fill="none" stroke-width="2"></path></g><g transform="translate(680 55)"><path d="M0 -32L27.7 -16L27.7 16L0 32L-27.7 16L-27.7 -16Z" stroke="#dbecf4" fill="none" stroke-width="2"></path></g><g transform="translate(294 485)"><path d="M0 -40L34.6 -20L34.6 20L0 40L-34.6 20L-34.6 -20Z" stroke="#dbecf4" fill="none" stroke-width="2"></path></g><g transform="translate(161 432)"><path d="M0 -25L21.7 -12.5L21.7 12.5L0 25L-21.7 12.5L-21.7 -12.5Z" stroke="#dbecf4" fill="none" stroke-width="2"></path></g><g transform="translate(296 35)"><path d="M0 -12L10.4 -6L10.4 6L0 12L-10.4 6L-10.4 -6Z" stroke="#dbecf4" fill="none" stroke-width="2"></path></g><g transform="translate(639 385)"><path d="M0 -33L28.6 -16.5L28.6 16.5L0 33L-28.6 16.5L-28.6 -16.5Z" stroke="#dbecf4" fill="none" stroke-width="2"></path></g><g transform="translate(486 567)"><path d="M0 -36L31.2 -18L31.2 18L0 36L-31.2 18L-31.2 -18Z" stroke="#dbecf4" fill="none" stroke-width="2"></path></g><g transform="translate(167 38)"><path d="M0 -38L32.9 -19L32.9 19L0 38L-32.9 19L-32.9 -19Z" stroke="#dbecf4" fill="none" stroke-width="2"></path></g><g transform="translate(160 560)"><path d="M0 -28L24.2 -14L24.2 14L0 28L-24.2 14L-24.2 -14Z" stroke="#dbecf4" fill="none" stroke-width="2"></path></g><g transform="translate(418 132)"><path d="M0 -23L19.9 -11.5L19.9 11.5L0 23L-19.9 11.5L-19.9 -11.5Z" stroke="#dbecf4" fill="none" stroke-width="2"></path></g><g transform="translate(9 282)"><path d="M0 -15L13 -7.5L13 7.5L0 15L-13 7.5L-13 -7.5Z" stroke="#dbecf4" fill="none" stroke-width="2"></path></g><g transform="translate(12 586)"><path d="M0 -45L39 -22.5L39 22.5L0 45L-39 22.5L-39 -22.5Z" stroke="#dbecf4" fill="none" stroke-width="2"></path></g><g transform="translate(772 154)"><path d="M0 -37L32 -18.5L32 18.5L0 37L-32 18.5L-32 -18.5Z" stroke="#dbecf4" fill="none" stroke-width="2"></path></g><g transform="translate(26 3)"><path d="M0 -8L6.9 -4L6.9 4L0 8L-6.9 4L-6.9 -4Z" stroke="#dbecf4" fill="none" stroke-width="2"></path></g></g></svg>